<svg width="122" height="28" viewBox="0 0 122 28" fill="none" xmlns="http://www.w3.org/2000/svg">
<path d="M108.334 17.1358L103.864 10.1509H107.831L112.137 17.1358L107.583 24.0495H103.616L108.334 17.1358Z" fill="#363940"/>
<path d="M115.941 17.0647L120.411 24.0497L116.444 24.0497L112.138 17.0647L116.692 10.151L120.659 10.151L115.941 17.0647Z" fill="#363940"/>
<path d="M99.4492 24.0142C98.9606 24.0142 98.5625 23.8333 98.2549 23.4714C97.9654 23.0914 97.8206 22.6571 97.8206 22.1685V21.9785C97.5311 22.4671 97.1692 22.8833 96.7349 23.2271C96.3187 23.5709 95.8663 23.8514 95.3777 24.0685C94.8892 24.3038 94.3825 24.4757 93.8577 24.5842C93.3511 24.6928 92.8444 24.738 92.3377 24.7199C91.6139 24.7199 90.9715 24.5933 90.4105 24.3399C89.8496 24.1047 89.3701 23.788 88.972 23.3899C88.592 22.9918 88.3024 22.5394 88.1034 22.0328C87.9043 21.508 87.8048 20.9742 87.8048 20.4313C87.8048 19.8342 87.9224 19.2551 88.1577 18.6942C88.411 18.1151 88.791 17.5994 89.2977 17.147C89.8224 16.6946 90.4829 16.3327 91.2791 16.0613C92.0753 15.7898 93.0253 15.6632 94.1292 15.6813L97.8206 15.7084V14.7041C97.8206 13.745 97.5582 13.0393 97.0335 12.5869C96.5268 12.1165 95.7849 11.8812 94.8077 11.8812C93.8487 11.8812 93.1158 12.0893 92.6091 12.5055C92.1206 12.9217 91.8763 13.537 91.8763 14.3512H88.6191C88.6191 13.4827 88.782 12.7317 89.1077 12.0984C89.4515 11.4469 89.9039 10.9222 90.4648 10.5241C91.0439 10.1079 91.7134 9.80024 92.4734 9.60119C93.2334 9.40214 94.0477 9.30261 94.9163 9.30261C95.7849 9.30261 96.6082 9.40214 97.3863 9.60119C98.1644 9.80024 98.834 10.1169 99.3949 10.5512C99.974 10.9855 100.426 11.5374 100.752 12.2069C101.096 12.8765 101.268 13.6727 101.268 14.5955V21.3542C101.268 21.6437 101.349 21.879 101.512 22.0599C101.675 22.2409 101.901 22.3313 102.191 22.3313H102.354V24.0142H99.4492ZM93.2877 21.8699C93.722 21.8699 94.2015 21.7975 94.7263 21.6528C95.2511 21.508 95.7397 21.2999 96.192 21.0285C96.6625 20.7389 97.0516 20.3951 97.3592 19.997C97.6668 19.5808 97.8206 19.1194 97.8206 18.6127V18.097L94.2377 18.0427C93.713 18.0427 93.2606 18.1061 92.8806 18.2327C92.5006 18.3413 92.1839 18.4951 91.9306 18.6942C91.6772 18.8932 91.4872 19.1194 91.3606 19.3727C91.252 19.6261 91.1977 19.8794 91.1977 20.1327C91.1977 20.5851 91.3696 20.9923 91.7134 21.3542C92.0753 21.698 92.6001 21.8699 93.2877 21.8699Z" fill="#363940"/>
<path d="M64.5945 12.2879C65.2459 11.166 65.9516 10.3607 66.7116 9.87216C67.4897 9.36549 68.3945 9.11215 69.4259 9.11215C70.6745 9.11215 71.715 9.38358 72.5474 9.92645C73.3979 10.4512 74.0493 11.1841 74.5017 12.125C75.0084 11.2746 75.6689 10.5779 76.4832 10.035C77.2974 9.49216 78.1751 9.21168 79.116 9.19358C81.378 9.15739 83.0156 9.76359 84.0289 11.0122C85.0604 12.2427 85.5761 14.0703 85.5761 16.4951V24.0138H82.1289V16.4951C82.1289 15.8437 82.0746 15.2556 81.9661 14.7308C81.8575 14.1879 81.6675 13.7265 81.3961 13.3465C81.1246 12.9484 80.7718 12.6408 80.3375 12.4236C79.9032 12.2065 79.3603 12.0979 78.7089 12.0979C78.0032 12.0979 77.4332 12.2065 76.9989 12.4236C76.5646 12.6408 76.2208 12.9484 75.9674 13.3465C75.7141 13.7265 75.5422 14.1789 75.4517 14.7037C75.3612 15.2103 75.316 15.7622 75.316 16.3594V24.0138H71.8688V16.3322C71.8688 15.6627 71.8055 15.0565 71.6788 14.5136C71.5702 13.9708 71.3802 13.5093 71.1088 13.1293C70.8374 12.7312 70.4664 12.4236 69.9959 12.2065C69.5255 11.9893 68.9374 11.8808 68.2316 11.8808C67.6888 11.8808 67.1911 12.0074 66.7388 12.2608C66.2864 12.5141 65.8973 12.8489 65.5716 13.2651C65.264 13.6813 65.0197 14.1608 64.8387 14.7037C64.6759 15.2465 64.5945 15.8075 64.5945 16.3865V24.0138L61.1473 23.9866V9.8993H64.5945V12.2879Z" fill="#363940"/>
<path d="M45.5918 4.66054H49.039V15.7621L55.0376 9.95346L59.2448 9.92632L53.5448 15.4907L59.1091 23.9865H54.9291L50.9662 18.015L49.039 19.8607V23.9865H45.5918V4.66054Z" fill="#363940"/>
<path d="M43.0335 19.8336C42.7982 20.3764 42.4996 20.9193 42.1377 21.4622C41.7939 22.005 41.3506 22.4936 40.8077 22.9279C40.2829 23.3622 39.6496 23.7151 38.9077 23.9865C38.1658 24.2579 37.3062 24.3936 36.3291 24.3936C34.9177 24.3936 33.7505 24.1493 32.8276 23.6608C31.9048 23.1541 31.1629 22.5298 30.6019 21.7879C30.0409 21.0279 29.6428 20.2045 29.4076 19.3179C29.1905 18.4312 29.0819 17.6078 29.0819 16.8478C29.0819 16.0878 29.1905 15.2645 29.4076 14.3778C29.6428 13.4911 30.0409 12.6768 30.6019 11.9349C31.1629 11.193 31.9048 10.5777 32.8276 10.0892C33.7505 9.5825 34.9177 9.32916 36.3291 9.32916C37.3605 9.32916 38.2472 9.46488 38.9891 9.73631C39.7491 10.0077 40.3915 10.3606 40.9163 10.7949C41.4411 11.2292 41.8753 11.7359 42.2192 12.3149C42.563 12.8759 42.8434 13.4549 43.0606 14.0521L39.8034 14.8121C39.6587 14.3959 39.4958 14.0249 39.3148 13.6992C39.1339 13.3554 38.9077 13.0659 38.6363 12.8306C38.3648 12.5773 38.0391 12.3873 37.6591 12.2606C37.2972 12.1159 36.8539 12.0435 36.3291 12.0435C35.6958 12.0435 35.1348 12.1702 34.6462 12.4235C34.1757 12.6587 33.7776 12.9935 33.4519 13.4278C33.1262 13.8621 32.8819 14.3687 32.7191 14.9478C32.5562 15.5269 32.4748 16.1602 32.4748 16.8478C32.4748 17.5355 32.5472 18.1778 32.6919 18.775C32.8548 19.354 33.0991 19.8607 33.4248 20.295C33.7505 20.7112 34.1486 21.046 34.6191 21.2993C35.1077 21.5346 35.6777 21.6522 36.3291 21.6522C36.8177 21.6522 37.2429 21.5798 37.6048 21.435C37.9848 21.2903 38.3105 21.1003 38.582 20.865C38.8715 20.6117 39.1158 20.3222 39.3148 19.9964C39.5139 19.6707 39.6858 19.336 39.8306 18.9921L43.0335 19.8336Z" fill="#363940"/>
<path d="M23.1754 6.42539C23.1754 6.29872 23.2026 6.14491 23.2569 5.96395C23.3112 5.7649 23.4107 5.58395 23.5554 5.42109C23.7002 5.24014 23.8993 5.08632 24.1526 4.95965C24.4059 4.83299 24.7317 4.76965 25.1298 4.76965C25.5098 4.76965 25.8264 4.83299 26.0798 4.95965C26.3331 5.06823 26.5321 5.21299 26.6769 5.39395C26.8398 5.5568 26.9483 5.73776 27.0026 5.93681C27.0569 6.11776 27.0841 6.28062 27.0841 6.42539C27.0841 6.57015 27.0569 6.74206 27.0026 6.94111C26.9483 7.12206 26.8398 7.30302 26.6769 7.48397C26.5321 7.64683 26.3331 7.79159 26.0798 7.91826C25.8264 8.02684 25.5098 8.08112 25.1298 8.08112C24.7317 8.08112 24.4059 8.01779 24.1526 7.89112C23.8993 7.76445 23.7002 7.61969 23.5554 7.45683C23.4107 7.27587 23.3112 7.09492 23.2569 6.91397C23.2026 6.71491 23.1754 6.55206 23.1754 6.42539ZM23.4197 9.73686H26.8669V23.9599H23.4197V9.73686Z" fill="#363940"/>
<path d="M17.5244 3.27617H20.9716V23.9864H17.5244V3.27617Z" fill="#363940"/>
<path d="M15.2922 19.8335C15.057 20.3764 14.7584 20.9193 14.3965 21.4621C14.0527 22.005 13.6093 22.4936 13.0665 22.9279C12.5417 23.3622 11.9084 23.715 11.1665 23.9865C10.4245 24.2579 9.56501 24.3936 8.58785 24.3936C7.17641 24.3936 6.00926 24.1493 5.08639 23.6607C4.16352 23.1541 3.42161 22.5298 2.86065 21.7879C2.29969 21.0278 1.9016 20.2045 1.66635 19.3178C1.44921 18.4312 1.34064 17.6078 1.34064 16.8478C1.34064 16.0878 1.44921 15.2644 1.66635 14.3778C1.9016 13.4911 2.29969 12.6768 2.86065 11.9349C3.42161 11.193 4.16352 10.5777 5.08639 10.0891C6.00926 9.58247 7.17641 9.32913 8.58785 9.32913C9.61929 9.32913 10.506 9.46485 11.2479 9.73628C12.0079 10.0077 12.6503 10.3606 13.175 10.7949C13.6998 11.2292 14.1341 11.7358 14.4779 12.3149C14.8217 12.8758 15.1022 13.4549 15.3194 14.052L12.0622 14.8121C11.9174 14.3959 11.7546 14.0249 11.5736 13.6992C11.3926 13.3554 11.1665 13.0658 10.895 12.8306C10.6236 12.5773 10.2979 12.3873 9.91787 12.2606C9.55596 12.1158 9.11262 12.0435 8.58785 12.0435C7.95451 12.0435 7.39356 12.1701 6.90498 12.4235C6.4345 12.6587 6.0364 12.9935 5.71068 13.4278C5.38496 13.862 5.14068 14.3687 4.97782 14.9478C4.81496 15.5268 4.73353 16.1602 4.73353 16.8478C4.73353 17.5354 4.80591 18.1778 4.95067 18.775C5.11353 19.354 5.35782 19.8607 5.68354 20.295C6.00926 20.7112 6.40736 21.0459 6.87784 21.2993C7.36641 21.5345 7.93642 21.6521 8.58785 21.6521C9.07643 21.6521 9.50167 21.5798 9.86358 21.435C10.2436 21.2902 10.5693 21.1002 10.8407 20.865C11.1303 20.6117 11.3745 20.3221 11.5736 19.9964C11.7726 19.6707 11.9446 19.3359 12.0893 18.9921L15.2922 19.8335Z" fill="#363940"/>
</svg>
